# xmcd CD database file
#
# Track frame offsets:
#	150
#	17324
#	42224
#	58497
#	77493
#	94199
#	112749
#	132824
#	145567
#	167330
#
# Disc length: 2483 seconds
#
# Revision: 0
# Processed by: cddbd v1.5.2PL0 Copyright (c) Steve Scherf et al.
# Submitted via: CDex 1.51
#
DISCID=6d09b10a
DTITLE=Brigitte Mitchell - Let's call it love
DYEAR=1900
DGENRE=Jazz
TTITLE0=Lamento
TTITLE1=Throw it away
TTITLE2=Lost in the memory
TTITLE3=Meditation
TTITLE4=They all laughed
TTITLE5=Corcovado
TTITLE6=Peel me a grape
TTITLE7=Triste
TTITLE8=Moonlight
TTITLE9=Once I loved
EXTD=
EXTT0=
EXTT1=
EXTT2=
EXTT3=
EXTT4=
EXTT5=
EXTT6=
EXTT7=
EXTT8=
EXTT9=
PLAYORDER=
